<svg width="300" height="300" viewBox="0 0 300 300" fill="none" xmlns="http://www.w3.org/2000/svg">
<g id="cookie e farelo" clip-path="url(#clip0_3_3)">
<g id="cookie">
<path id="Vector" d="M281.034 145.523L266.772 148.376C262.026 149.325 257.256 146.856 255.29 142.433L240.013 108.059C238.72 105.148 236.158 102.997 233.069 102.224L225.11 100.235C220.505 99.0832 217.274 94.9459 217.274 90.1986V35.0408C217.274 32.4633 216.312 29.9783 214.576 28.0728L195.36 6.9873C178.036 1.50116 159.361 -0.946297 139.945 0.332218C65.3232 5.24823 4.87266 65.9514 0.319341 140.596C-4.99335 227.7 64.0758 300 150.032 300C232.018 300 298.599 234.214 299.968 152.554L287.69 146.415C285.632 145.386 283.29 145.072 281.034 145.523Z" fill="#FFE6A1"/>
<path id="Vector_2" d="M196.584 253.448C195.673 253.448 194.776 253.396 193.87 253.379C188.186 259.755 179.935 263.793 170.722 263.793C157.151 263.793 145.646 255.068 141.429 242.934C122.867 235.588 106.124 224.66 92.0537 210.979C89.925 211.621 87.7143 212.068 85.3764 212.068C72.5215 212.068 62.1006 201.647 62.1006 188.793C62.1006 184.303 63.4318 180.148 65.6338 176.593C65.4762 176.311 65.308 176.037 65.1516 175.754C49.0061 174.66 36.2391 161.251 36.2391 144.827C36.2391 135.148 40.6723 126.509 47.6162 120.817C46.9582 115.115 46.5838 109.327 46.5838 103.448C46.5838 73.9465 55.135 46.4584 69.8437 23.2599C27.8988 49.8545 0.0322266 96.6586 0.0322266 150C0.0322266 232.843 67.1895 300 150.032 300C203.374 300 250.177 272.133 276.772 230.188C253.574 244.897 226.086 253.448 196.584 253.448Z" fill="#FFD796"/>
<path id="Vector_3" d="M116.412 124.138C123.553 124.138 129.343 118.348 129.343 111.207C129.343 104.065 123.553 98.2758 116.412 98.2758C109.27 98.2758 103.481 104.065 103.481 111.207C103.481 118.348 109.27 124.138 116.412 124.138Z" fill="#FFD796"/>
<path id="Vector_4" d="M253.481 209.483C260.622 209.483 266.412 203.693 266.412 196.552C266.412 189.41 260.622 183.621 253.481 183.621C246.339 183.621 240.55 189.41 240.55 196.552C240.55 203.693 246.339 209.483 253.481 209.483Z" fill="#FFD796"/>
<path id="Vector_5" d="M135.808 209.483C140.807 209.483 144.86 205.43 144.86 200.431C144.86 195.432 140.807 191.38 135.808 191.38C130.809 191.38 126.756 195.432 126.756 200.431C126.756 205.43 130.809 209.483 135.808 209.483Z" fill="#FFD796"/>
<path id="Vector_6" d="M205.636 126.724C210.635 126.724 214.688 122.671 214.688 117.672C214.688 112.673 210.635 108.621 205.636 108.621C200.637 108.621 196.584 112.673 196.584 117.672C196.584 122.671 200.637 126.724 205.636 126.724Z" fill="#FFD796"/>
<path id="Vector_7" d="M169.429 46.5515C174.428 46.5515 178.481 42.499 178.481 37.5C178.481 32.5009 174.428 28.4484 169.429 28.4484C164.43 28.4484 160.378 32.5009 160.378 37.5C160.378 42.499 164.43 46.5515 169.429 46.5515Z" fill="#FFD796"/>
<path id="Vector_8" d="M142.505 133.234L136.526 143.2C132.952 149.157 136.148 156.874 142.887 158.558L160.686 163.008C166.229 164.394 171.846 161.024 173.231 155.481L175.267 147.336C175.679 145.689 175.679 143.966 175.267 142.318L173.114 133.707C171.775 128.35 166.464 124.989 161.05 126.072L149.347 128.412C146.489 128.984 144.005 130.735 142.505 133.234Z" fill="#B97850"/>
<path id="Vector_9" d="M172.361 197.269L166.124 207.663C163.024 212.83 164.979 219.543 170.368 222.238L190.221 232.164C196.14 235.124 203.278 231.841 204.884 225.421L206.929 217.241L209.319 207.679C210.806 201.728 206.818 195.797 200.745 194.929L182.693 192.35C178.574 191.762 174.502 193.7 172.361 197.269Z" fill="#B97850"/>
<path id="Vector_10" d="M63.5232 135.561L55.9125 148.246C53.4703 152.317 54.1119 157.527 57.4682 160.884L69.4459 172.862C73.8059 177.222 80.9871 176.824 84.8391 172.01L95.1076 159.173C97.1244 156.653 97.8486 153.335 97.0652 150.202L94.7232 140.834C93.7535 136.955 90.6363 133.983 86.7164 133.199L74.4223 130.74C70.1355 129.882 65.7727 131.812 63.5232 135.561Z" fill="#B97850"/>
<path id="Vector_11" d="M105.639 51.5736L99.7705 61.3553C96.3656 67.0301 99.0914 74.3988 105.37 76.4918L118.105 80.7369C121.822 81.9756 125.92 81.0082 128.691 78.2379L135.546 71.383C138.115 68.8137 139.148 65.0842 138.267 61.5592L136.474 54.3879C135.323 49.7818 131.185 46.551 126.438 46.551H114.509C110.876 46.5516 107.509 48.4582 105.639 51.5736Z" fill="#B97850"/>
<path id="Vector_12" d="M230.576 131.525L224.588 137.513C220.549 141.553 220.549 148.103 224.588 152.143L227.518 155.073C230.667 158.222 235.477 159.002 239.46 157.011L256.403 148.539C260.74 146.371 262.989 141.482 261.813 136.778L261.046 133.708C259.707 128.351 254.396 124.99 248.981 126.073L235.863 128.696C233.859 129.096 232.02 130.081 230.576 131.525Z" fill="#B97850"/>
<path id="Vector_13" d="M192.111 57.6891L185.241 66.8496C182.717 70.2141 182.482 74.7727 184.646 78.3791L191.003 88.9734C194.041 94.0383 200.697 95.5348 205.611 92.2588L218.52 83.6531C223.461 80.359 224.62 73.5896 221.057 68.8389L214.04 59.4826C212.777 57.7992 211.032 56.5406 209.036 55.8756L203.658 54.0826C199.433 52.6734 194.782 54.1266 192.111 57.6891Z" fill="#B97850"/>
<path id="Vector_14" d="M103.587 221.124L96.8326 229.567C92.4961 234.988 94.6236 243.056 101.069 245.635L110.142 249.264C112.609 250.251 115.36 250.251 117.826 249.264L128.009 245.191C134.109 242.751 136.419 235.315 132.775 229.847L131.026 227.224C130.027 225.726 128.655 224.515 127.045 223.71L116.293 218.334C111.928 216.152 106.634 217.315 103.587 221.124Z" fill="#B97850"/>
<path id="Vector_15" d="M82.282 171.633L70.3043 159.656C66.948 156.299 66.3059 151.089 68.7486 147.019L76.3594 134.334C77.0086 133.252 77.8664 132.374 78.815 131.619L74.4229 130.741C70.1361 129.884 65.7727 131.814 63.5232 135.563L55.9125 148.247C53.4703 152.318 54.1119 157.528 57.4682 160.885L69.4459 172.863C73.4871 176.904 79.9195 176.807 83.9098 172.944C83.3379 172.565 82.7871 172.139 82.282 171.633Z" fill="#A5694B"/>
<path id="Vector_16" d="M128.466 77.0543L115.73 72.8098C109.453 70.7168 106.726 63.3481 110.131 57.6733L116 47.8916C116.298 47.3936 116.692 46.984 117.062 46.5516H114.509C110.875 46.5516 107.508 48.4582 105.638 51.5742L99.7693 61.3553C96.3639 67.0301 99.0897 74.3988 105.369 76.4918L118.104 80.7369C121.821 81.9756 125.919 81.0082 128.69 78.2379L129.654 77.274C129.258 77.192 128.856 77.1844 128.466 77.0543Z" fill="#A5694B"/>
<path id="Vector_17" d="M170.501 160.034L152.702 155.584C145.963 153.899 142.766 146.183 146.341 140.226L152.32 130.26C153.032 129.073 153.978 128.072 155.068 127.269L149.347 128.413C146.49 128.984 144.005 130.736 142.505 133.235L136.526 143.201C132.952 149.158 136.148 156.875 142.887 158.559L160.686 163.009C164.435 163.946 168.185 162.674 170.669 160.059C170.613 160.045 170.557 160.048 170.501 160.034Z" fill="#A5694B"/>
<path id="Vector_18" d="M200.665 88.0787L194.309 77.4844C192.145 73.8779 192.38 69.3205 194.903 65.9549L201.773 56.7949C202.526 55.7912 203.46 55.0049 204.472 54.3527L203.657 54.0815C199.433 52.6734 194.781 54.1266 192.11 57.6885L185.24 66.8484C182.716 70.2135 182.481 74.7715 184.645 78.3779L191.002 88.9723C194.031 94.0201 200.65 95.5172 205.559 92.2846C203.592 91.466 201.851 90.0539 200.665 88.0787Z" fill="#A5694B"/>
<path id="Vector_19" d="M235.821 154.384C231.78 150.344 231.78 143.794 235.821 139.754L241.808 133.767C243.252 132.323 245.091 131.338 247.095 130.938L258.137 128.729C255.774 126.484 252.401 125.388 248.981 126.072L235.862 128.696C233.859 129.097 232.02 130.081 230.576 131.525L224.588 137.512C220.549 141.553 220.549 148.102 224.588 152.142L227.518 155.072C230.472 158.026 234.867 158.8 238.689 157.254L235.821 154.384Z" fill="#A5694B"/>
<path id="Vector_20" d="M183.183 221.37C177.794 218.675 175.839 211.962 178.939 206.795L185.176 196.402C185.994 195.04 187.15 194.007 188.425 193.17L182.694 192.351C178.574 191.762 174.502 193.7 172.361 197.269L166.125 207.663C163.025 212.83 164.98 219.543 170.369 222.238L190.222 232.164C194.179 234.143 198.644 233.289 201.673 230.616L183.183 221.37Z" fill="#A5694B"/>
<path id="Vector_21" d="M120.487 247.535L111.414 243.906C104.969 241.328 102.841 233.259 107.177 227.838L113.932 219.395C114.361 218.859 114.843 218.39 115.351 217.961C111.188 216.367 106.42 217.582 103.587 221.124L96.8326 229.567C92.4961 234.988 94.6236 243.056 101.069 245.635L110.142 249.264C112.609 250.251 115.36 250.251 117.826 249.264L121.446 247.816C121.125 247.723 120.799 247.66 120.487 247.535Z" fill="#A5694B"/>
<path id="Vector_22" d="M41.4053 212.064C40.6301 212.064 39.8391 211.887 39.0973 211.518C36.5414 210.24 35.5055 207.134 36.784 204.578L41.9566 194.234C43.2352 191.678 46.3336 190.652 48.8965 191.92C51.4523 193.199 52.4883 196.304 51.2098 198.86L46.0371 209.205C45.1307 211.018 43.3049 212.064 41.4053 212.064Z" fill="#C98850"/>
<path id="Vector_23" d="M134.515 279.31H129.342C126.486 279.31 124.17 276.997 124.17 274.137C124.17 271.278 126.486 268.965 129.342 268.965H134.515C137.371 268.965 139.687 271.278 139.687 274.137C139.687 276.997 137.371 279.31 134.515 279.31Z" fill="#925F4A"/>
<path id="Vector_24" d="M113.82 181.034C113.045 181.034 112.254 180.858 111.512 180.489C108.956 179.21 107.92 176.104 109.199 173.549L114.371 163.204C115.647 160.654 118.746 159.623 121.311 160.891C123.867 162.169 124.903 165.275 123.625 167.831L118.452 178.175C117.545 179.989 115.719 181.034 113.82 181.034Z" fill="#C98850"/>
<path id="Vector_25" d="M82.7859 98.2758C82.0107 98.2758 81.2197 98.0994 80.4779 97.7303L70.1332 92.5576C67.5773 91.2791 66.5414 88.1736 67.8199 85.6178C69.0955 83.0672 72.1969 82.0313 74.7597 83.3045L85.1045 88.4766C87.6603 89.7551 88.6963 92.8606 87.4178 95.4164C86.5113 97.2299 84.6849 98.2758 82.7859 98.2758Z" fill="#925F4A"/>
<path id="Vector_26" d="M144.86 25.8615H134.515C131.659 25.8615 129.343 23.5482 129.343 20.6889C129.343 17.8295 131.659 15.5162 134.515 15.5162H144.86C147.717 15.5162 150.033 17.8295 150.033 20.6889C150.033 23.5482 147.717 25.8615 144.86 25.8615Z" fill="#925F4A"/>
<path id="Vector_27" d="M165.555 103.448C163.655 103.448 161.829 102.403 160.923 100.589L155.75 90.2443C154.472 87.6885 155.508 84.5818 158.064 83.3045C160.625 82.0313 163.729 83.0672 165.004 85.6178L170.176 95.9625C171.455 98.5184 170.419 101.625 167.863 102.902C167.12 103.271 166.33 103.448 165.555 103.448Z" fill="#C98850"/>
<path id="Vector_28" d="M23.6051 128.776C22.9096 128.433 22.2785 127.925 21.7752 127.266C20.0467 124.99 20.4914 121.746 22.7678 120.018L31.9799 113.024C34.2539 111.295 37.4959 111.744 39.2279 114.016C40.9564 116.292 40.5117 119.537 38.2353 121.264L29.0238 128.258C27.4084 129.483 25.3084 129.615 23.6051 128.776Z" fill="#925F4A"/>
<path id="Vector_29" d="M217.274 186.207C215.95 186.207 214.627 185.702 213.617 184.692L203.272 174.347C201.252 172.327 201.252 169.053 203.272 167.033C205.293 165.012 208.566 165.012 210.587 167.033L220.931 177.377C222.952 179.398 222.952 182.671 220.931 184.692C219.921 185.702 218.597 186.207 217.274 186.207Z" fill="#925F4A"/>
<path id="Vector_30" d="M227.619 237.931C226.295 237.931 224.971 237.426 223.962 236.416C221.941 234.396 221.941 231.122 223.962 229.102L229.134 223.929C231.155 221.909 234.428 221.909 236.449 223.929C238.469 225.949 238.469 229.223 236.449 231.243L231.276 236.416C230.265 237.426 228.942 237.931 227.619 237.931Z" fill="#C98850"/>
</g>
<g id="farelo">
<path id="Vector_31" d="M237.963 20.6894V33.7394C237.963 37.3992 241.659 39.9012 245.057 38.5418L260.574 32.3349C262.538 31.5492 263.825 29.6473 263.825 27.5326V20.6894C263.825 17.833 261.509 15.5168 258.653 15.5168H243.135C240.279 15.5168 237.963 17.833 237.963 20.6894Z" fill="#FFE6A1"/>
<path id="Vector_32" d="M249.022 61.4672L245.721 84.5731C244.945 90.0082 248.55 95.1035 253.933 96.1799L263.406 98.0742C267.517 98.8969 271.717 97.1566 274.042 93.6686L277.605 88.3248C279.45 85.5563 279.852 82.0693 278.684 78.9545L267.892 50.1785C266.55 46.5996 261.959 45.6053 259.256 48.3082L251.948 55.6154C250.365 57.1981 249.339 59.2518 249.022 61.4672Z" fill="#FFE6A1"/>
<path id="Vector_33" d="M274.953 88.8861L265.48 86.9918C260.096 85.9148 256.492 80.8195 257.268 75.385L260.569 52.2797C260.863 50.2189 261.824 48.3369 263.222 46.8053C261.819 46.7344 260.377 47.1861 259.256 48.3064L251.948 55.6143C250.365 57.1969 249.338 59.2506 249.022 61.466L245.722 84.5713C244.945 90.007 248.551 95.1017 253.934 96.1781L263.406 98.0725C267.517 98.8939 271.717 97.1549 274.043 93.6668L277.16 88.9922C276.426 89.0068 275.692 89.0344 274.953 88.8861Z" fill="#FFD796"/>
<path id="Vector_34" d="M255.401 28.1965C252.004 29.5553 248.308 27.0533 248.308 23.3941V15.5168H243.135C240.279 15.5168 237.963 17.833 237.963 20.6894V33.7394C237.963 37.3992 241.658 39.9012 245.056 38.5418L260.573 32.3349C262.537 31.5492 263.825 29.6478 263.825 27.5326V24.8273L255.401 28.1965Z" fill="#FFD796"/>
<path id="Vector_35" d="M276.749 112.806L273.691 118.921C272.964 120.377 272.964 122.091 273.691 123.547L275.087 126.339C276.478 129.121 279.993 130.055 282.582 128.33L290.92 122.771C292.359 121.811 293.224 120.196 293.224 118.467V112.894C293.224 109.364 289.765 106.871 286.416 107.988L279.739 110.213C278.438 110.646 277.362 111.579 276.749 112.806Z" fill="#FFD796"/>
</g>
</g>
<defs>
<clipPath id="clip0_3_3">
<rect width="300" height="300" fill="white"/>
</clipPath>
</defs>
</svg>
